PathFileType	4	(X/Y/Z)	C:\Users\Alexander Denk\OneDrive - Universitaet Duisburg-Essen\Dokumente\GitHub\artisynth_dissertation_models\src\artisynth\models\gait_model\Models\EP010DR1980_BE_3Gang01\Input\EP010DR1980_BE_3Gang01_positions.trc
DataRate	CameraRate	NumFrames	NumMarkers	Units	OrigDataRate	OrigDataStartFrame	OrigNumFrames
100	100	4	41	m	100	0	103
Frame#	Time	LFHD			RFHD			LBHD			RBHD			C7			T10			CLAV			STRN			RBAK			LSHO			LUPA			LELB			LFRM			LWRA			LWRB			LFIN			RSHO			RUPA			RELB			RFRM			RWRA			RWRB			RFIN			LASI			RASI			LPSI			RPSI			LTHI			LKNE			LTIB			LANK			LTOE			LBTO			LHEE			RKNE			RTIB			RANK			RTOE			RBTO			RHEE			RTHI			
		X1	Y1	Z1	X2	Y2	Z2	X3	Y3	Z3	X4	Y4	Z4	X5	Y5	Z5	X6	Y6	Z6	X7	Y7	Z7	X8	Y8	Z8	X9	Y9	Z9	X10	Y10	Z10	X11	Y11	Z11	X12	Y12	Z12	X13	Y13	Z13	X14	Y14	Z14	X15	Y15	Z15	X16	Y16	Z16	X17	Y17	Z17	X18	Y18	Z18	X19	Y19	Z19	X20	Y20	Z20	X21	Y21	Z21	X22	Y22	Z22	X23	Y23	Z23	X24	Y24	Z24	X25	Y25	Z25	X26	Y26	Z26	X27	Y27	Z27	X28	Y28	Z28	X29	Y29	Z29	X30	Y30	Z30	X31	Y31	Z31	X32	Y32	Z32	X33	Y33	Z33	X34	Y34	Z34	X35	Y35	Z35	X36	Y36	Z36	X37	Y37	Z37	X38	Y38	Z38	X39	Y39	Z39	X40	Y40	Z40	X41	Y41	Z41	X42	Y42	Z42	X43	Y43	Z43	

1	0	0.18490625	1.71159448242187	0.0184738502502442	0.313675964355469	1.71646875	0.020061658859253	0.177290786743164	1.63816796875	0.15697021484375	0.327817718505859	1.64207775878906	0.152216018676758	0.259249114990234	1.53948303222656	0.2085029296875	0.245662979125977	1.2625439453125	0.28885546875	0.246483917236328	1.400650390625	0.0678291397094727	0.237750701904297	1.26848327636719	0.0497578735351563	0.407947967529297	1.43536010742187	0.235251129150391	0.0586616325378418	1.49099658203125	0.154849029541016	0.0132194671630859	1.34587927246094	0.157683700561524	-0.0238501319885254	1.15097790527344	0.153009521484375	-0.0241316814422607	0.908699096679688	0.103717315673828	0.0213877906799316	0.876143615722656	0.0859261779785157	-0.0266670722961426	0.871367309570312	0.147575668334961	-0.0231105079650879	0.796507751464844	0.0567169036865235	0.446113311767578	1.488626953125	0.130458450317383	0.515974243164062	1.22394311523437	0.124693130493164	0.530256286621094	1.12938110351562	0.111112785339356	0.504276245117187	0.917119079589844	0.0357166137695313	0.448120971679688	0.886468017578125	-0.000353152632713264	0.495923645019531	0.86110791015625	0.0577089195251465	0.484002075195313	0.794834777832031	-0.0424250755310058	0.114740219116211	1.03644519042969	0.0997347412109376	0.379538269042969	1.02386779785156	0.0813761291503907	0.219977020263672	1.07845080566406	0.270932861328125	0.285550384521484	1.07301452636719	0.260931243896484	0.0832943496704102	0.671757873535156	0.0444938697814942	0.110437400817871	0.517642395019531	0.00356228637695316	0.107567802429199	0.3657080078125	-0.0422162475585937	0.156613037109375	0.0743055725097656	-0.121308860778809	0.159285339355469	0.0884923858642578	-0.278110778808594	0.17939338684082	0.0988337707519531	-0.337435699462891	0.196746948242187	0.0210803184509277	-0.0739978256225586	0.360247772216797	0.50513623046875	0.295294555664063	0.358430053710938	0.363864410400391	0.379579284667969	0.288075469970703	0.107455024719238	0.505955413818359	0.295516876220703	0.0392426033020019	0.363417449951172	0.277351348876953	0.0348926773071289	0.30450439453125	0.236333358764648	0.0935732650756836	0.567793579101562	0.388065399169922	0.651985778808594	0.219192993164063
2	0.01	0.18387321472168	1.71190087890625	0.0183752160165825	0.312611968994141	1.71686083984375	0.0199578061197319	0.176284896850586	1.63837561035156	0.156800043592266	0.326802154541016	1.64238012695313	0.152065424451641	0.258413482666016	1.53957800292969	0.208296198377422	0.24501155090332	1.26244799804688	0.288030741224102	0.245574203491211	1.40104406738281	0.0673614144418755	0.236978790283203	1.26891784667969	0.0490173440073051	0.407121765136719	1.43546789550781	0.234827570447735	0.0577696380615234	1.49101904296875	0.154720194349102	0.0126141290664673	1.34575451660156	0.157570124158672	-0.0239880237579346	1.15071887207031	0.153073404798321	-0.0239207611083984	0.9082216796875	0.104627893934063	0.0216249504089355	0.875676086425781	0.0869315514658012	-0.026415828704834	0.871063842773438	0.148630259046368	-0.0227453365325928	0.795808288574219	0.058162462720684	0.445293151855469	1.48888928222656	0.130023203382305	0.51502294921875	1.22417907714844	0.124595621595196	0.529481567382812	1.12969799804688	0.111245813855938	0.504284362792969	0.916974853515625	0.0367193131540336	0.448297637939453	0.885971740722656	0.000687433728984813	0.496061676025391	0.861080505371094	0.059005537519268	0.484626342773438	0.794223022460938	-0.0407579550649605	0.114395294189453	1.03683642578125	0.0981134209726372	0.379305236816406	1.02378363037109	0.0803318581674614	0.219432434082031	1.07861389160156	0.269599741468243	0.285114471435547	1.07311315917969	0.259757364759258	0.0841264343261719	0.672719787597656	0.0418538403604545	0.110349113464355	0.518071960449219	0.00236700011234661	0.108241851806641	0.364977752685547	-0.0402363104726754	0.157775115966797	0.0719751663208008	-0.111137654771992	0.162046264648437	0.0804285659790039	-0.268552480211445	0.182907653808594	0.0879938049316406	-0.328387898912617	0.197113540649414	0.0218620300292969	-0.060874875536152	0.362000183105469	0.505188659667969	0.29353174830418	0.360220123291016	0.366378295898438	0.382255472669414	0.290116394042969	0.113408996582031	0.516146433362774	0.295781494140625	0.0389142608642578	0.376782602796368	0.2773818359375	0.0349407234191894	0.318180552015118	0.237769439697266	0.102294876098633	0.577806711683086	0.388921600341797	0.651622192382812	0.217486094007305
3	0.02	0.182789657592773	1.71247546386719	0.0182776966281967	0.311496368408203	1.71755322265625	0.01985597040139	0.175243087768555	1.63886279296875	0.156636982936485	0.325751373291016	1.64300341796875	0.151927273769005	0.257550048828125	1.53993713378906	0.208106724757774	0.24432585144043	1.26259350585938	0.287135792750938	0.244671157836914	1.40175183105469	0.0668768091388778	0.236218139648437	1.26968969726563	0.0482180948444442	0.406275817871094	1.43586389160156	0.23441832448922	0.0568674468994141	1.49132434082031	0.154546612758263	0.0119914131164551	1.34592102050781	0.157365513820274	-0.024131799697876	1.150744140625	0.153011601466759	-0.0236825618743896	0.908037658691406	0.10537209035836	0.0219071044921875	0.875495849609375	0.0878086099811629	-0.026157642364502	0.871051025390625	0.149510403651817	-0.0223137245178223	0.7954052734375	0.0594434786029891	0.444465484619141	1.48946142578125	0.12963756277047	0.514066162109375	1.22472448730469	0.124604123134239	0.528694152832031	1.13031652832031	0.111519131679161	0.504278564453125	0.917111450195312	0.0379172764011458	0.448459381103516	0.88574609375	0.00191763021431723	0.496172302246094	0.861339294433594	0.0605089273639754	0.485220886230469	0.793867919921875	-0.0388563184551164	0.114030891418457	1.03756188964844	0.0963948946186141	0.379018096923828	1.02396337890625	0.0792488489337997	0.218859420776367	1.07906982421875	0.268176915187462	0.284670074462891	1.07348962402344	0.258532475490196	0.0845931167602539	0.673816955566406	0.0397933082767562	0.109988922119141	0.518708984375	0.00165875722847736	0.108584617614746	0.364527801513672	-0.0379332685283586	0.158367782592773	0.0702989959716797	-0.101107737522499	0.164077484130859	0.0729811248779297	-0.259001902561562	0.185624969482422	0.0777995071411133	-0.319211802463906	0.19703108215332	0.0232629661560059	-0.0481126203349992	0.363949035644531	0.505233062744141	0.29059230520211	0.362233642578125	0.369327911376953	0.383909291286095	0.292399566650391	0.120187690734863	0.525457783717735	0.295957794189453	0.0385386734008789	0.390188801784141	0.277352844238281	0.034944595336914	0.332002491969688	0.239319458007813	0.112181343078613	0.586596577663048	0.389889190673828	0.651283996582031	0.214894825954063
4	0.03	0.181672546386719	1.71330456542969	0.0181876597684974	0.310346435546875	1.7185302734375	0.019762727288639	0.174181442260742	1.63961645507812	0.156487685708439	0.324681884765625	1.64393139648438	0.151807448892033	0.25667041015625	1.54055163574219	0.20794045975629	0.243612915039063	1.26297619628906	0.28619160416547	0.243789413452148	1.40275756835937	0.0663859744352454	0.235484680175781	1.27077612304688	0.0473843417448157	0.405421447753906	1.43653881835938	0.234034469155704	0.0559686889648437	1.49190344238281	0.154330588845646	0.011361177444458	1.34637097167969	0.157070838479435	-0.0242777652740479	1.15104870605469	0.152823661355411	-0.0234167022705078	0.908144226074219	0.105941558389103	0.0222357025146484	0.875598937988281	0.0885523600858801	-0.025896032333374	0.871323669433594	0.150205787209904	-0.0218116226196289	0.795295593261719	0.0605449519437903	0.443642639160156	1.49033056640625	0.129313834695255	0.513121459960937	1.22556884765625	0.124726707009708	0.527909484863281	1.13122509765625	0.11193720963422	0.504260467529297	0.917525329589844	0.0392989236396902	0.448605224609375	0.885793640136719	0.00332686570111449	0.496255401611328	0.861878784179688	0.0622024722379797	0.485774658203125	0.793773742675781	-0.0367438664155847	0.113642860412598	1.03860046386719	0.0946232714933508	0.378669616699219	1.02439868164062	0.0781550746244543	0.218265426635742	1.07980590820313	0.266699981240665	0.284220062255859	1.07413098144531	0.257287002114689	0.084676513671875	0.67502587890625	0.0383814001363867	0.109368881225586	0.519514038085938	0.00150789597455196	0.108598022460937	0.364351806640625	-0.0352717747407801	0.158474609375	0.0691907577514649	-0.0911530766206629	0.165485366821289	0.0662966537475586	-0.24934323164996	0.187691802978516	0.0684802474975586	-0.30974865767535	0.196609497070312	0.0250072937011719	-0.0357576069551356	0.366070587158203	0.505220520019531	0.286377379922306	0.364473266601562	0.372666534423828	0.384316527871525	0.294917846679688	0.127822196960449	0.53367614701215	0.296008666992188	0.0382149391174316	0.403613830117618	0.277242767333984	0.0348597755432129	0.345977691201603	0.241031814575195	0.123300346374512	0.593932586221134	0.390950469970703	0.650935485839844	0.211355605630314
